 <svg width="512" height="512" xmlns="http://www.w3.org/2000/svg">
<path fill-rule="evenodd" clip-rule="evenodd" fill="#1D1D1B" d="M400,160c-5.312,0-10.562,0.375-15.792,1.125
	C354.334,120.417,307.188,96,256,96s-98.312,24.417-128.208,65.125C122.562,160.375,117.312,160,112,160C50.25,160,0,210.25,0,272
	c0,61.75,50.25,112,112,112c13.688,0,27.084-2.5,39.709-7.333C180.666,401.917,217.5,416,256,416
	c38.542,0,75.333-14.083,104.291-39.333C372.916,381.5,386.312,384,400,384c61.75,0,112-50.25,112-112
	C512,210.25,461.75,160,400,160z"/>
</svg>
