<svg width="512" height="512" xmlns="http://www.w3.org/2000/svg">
    <path id="svg_35" d="m400,64c-5.312012,0 -10.562012,0.375 -15.791992,1.125c-29.873993,-40.708 -77.02002,-65.125 -128.208008,-65.125s-98.311996,24.417 -128.207993,65.125c-5.230011,-0.75 -10.480011,-1.125 -15.792007,-1.125c-61.75,0 -112,50.25 -112,112s50.25,112 112,112c13.688004,0 27.084,-2.5 39.709,-7.333008c28.957001,25.25 65.791,39.333008 104.291,39.333008c38.541992,0 75.333008,-14.083008 104.290985,-39.333008c12.625,4.833008 26.021027,7.333008 39.709015,7.333008c61.75,0 112,-50.25 112,-112s-50.25,-112 -112,-112zm-175,416c0,17.687988 14.311996,32 32,32s32,-14.312012 32,-32s-32,-64 -32,-64s-32,46.312012 -32,64zm127,-32c0,17.687988 14.312012,32 32,32s32,-14.312012 32,-32s-32,-64 -32,-64s-32,46.312012 -32,64zm-256,-64c0,17.687988 14.311996,32 32,32s32,-14.312012 32,-32s-32,-64 -32,-64s-32,46.312012 -32,64z" fill="#1D1D1B" clip-rule="evenodd" fill-rule="evenodd"/>
</svg>